<svg width="50" height="50" viewBox="0 0 50 50" fill="none" xmlns="http://www.w3.org/2000/svg">
<rect width="1440" height="80" transform="translate(-31 -11)" fill="white"/>
<circle cx="25" cy="13" r="11.5" stroke="#4F81BD"/>
<circle cx="37" cy="25" r="11.5" stroke="#4F81BD"/>
<circle cx="25" cy="37" r="11.5" stroke="#4F81BD"/>
<circle cx="13" cy="25" r="11.5" stroke="#4F81BD"/>
<ellipse cx="25" cy="25" rx="15" ry="16" fill="white"/>
<circle cx="25" cy="13" r="8" fill="#59AD15"/>
<circle cx="25" cy="37" r="8" fill="#59AD15"/>
<circle cx="37" cy="25" r="8" fill="#59AD15"/>
<circle cx="13" cy="25" r="8" fill="#59AD15"/>
<rect x="14" y="13" width="1" height="2" fill="white"/>
<rect x="13" y="14" width="1" height="2" fill="white"/>
<rect x="35" y="13" width="1" height="2" fill="white"/>
<rect x="36" y="14" width="1" height="2" fill="white"/>
<rect x="36" y="34" width="1" height="2" fill="white"/>
<rect x="35" y="35" width="1" height="2" fill="#FAFCFE"/>
<rect x="13" y="34" width="1" height="2" fill="#FAFCFE"/>
<rect x="14" y="35" width="1" height="2" fill="white"/>
</svg>
